<?xml version="1.0" standalone="no"?>
<!DOCTYPE svg PUBLIC "-//W3C//DTD SVG 20010904//EN"
 "http://www.w3.org/TR/2001/REC-SVG-20010904/DTD/svg10.dtd">
<svg version="1.0" xmlns="http://www.w3.org/2000/svg"
 width="470.000000pt" height="531.000000pt" viewBox="0 0 470.000000 531.000000"
 preserveAspectRatio="xMidYMid meet">

<g transform="translate(0.000000,531.000000) scale(0.100000,-0.100000)"
fill="#000000" stroke="none">
<path d="M2230 5303 c-363 -35 -588 -98 -865 -243 -220 -114 -372 -227 -566
-420 -370 -368 -612 -818 -732 -1360 -34 -151 -69 -418 -57 -425 4 -3 11 30
14 73 17 187 81 492 143 671 161 472 435 872 816 1196 167 141 460 306 677
381 253 87 473 119 760 111 322 -8 574 -72 870 -218 758 -375 1269 -1151 1384
-2099 7 -63 14 -97 15 -74 0 22 -6 89 -14 150 -117 881 -623 1642 -1340 2015
-182 94 -375 163 -572 204 -160 33 -406 51 -533 38z"/>
<path d="M2133 4551 c-100 -93 -224 -298 -356 -586 -97 -210 -88 -191 -137
-305 -95 -219 -230 -449 -313 -532 -109 -108 -232 -118 -314 -24 -18 20 -40
36 -49 36 -14 0 -16 -9 -12 -53 12 -146 131 -252 283 -251 112 1 199 54 270
164 53 81 78 137 157 345 131 347 224 477 394 557 171 80 344 27 344 -104 0
-50 19 -49 62 1 148 173 122 423 -62 608 -63 64 -206 163 -235 163 -6 0 -20
-9 -32 -19z"/>
<path d="M2130 3772 c-106 -40 -166 -92 -250 -220 -100 -152 -170 -316 -234
-549 -45 -162 -96 -242 -184 -284 -41 -21 -66 -24 -187 -27 -231 -6 -512 42
-727 124 -86 33 -94 34 -132 22 -23 -7 -41 -19 -41 -27 0 -27 240 -102 450
-142 159 -30 451 -38 563 -15 110 22 186 59 248 121 59 59 93 126 129 257 66
239 135 397 243 558 120 177 207 195 280 57 26 -50 27 -58 27 -208 l0 -157 84
0 85 0 63 61 c63 60 71 60 54 1 -15 -53 -1 -64 88 -64 62 0 83 4 103 19 24 20
25 20 41 0 14 -16 30 -19 90 -19 46 0 80 5 93 14 17 12 22 12 39 0 22 -17 147
-19 176 -4 24 13 25 2 4 -66 -22 -73 -21 -74 34 -74 39 0 51 4 55 18 3 9 21
76 41 147 21 72 41 134 46 140 6 6 17 1 30 -12 32 -32 15 -82 -39 -112 -13 -8
-15 -14 -6 -28 9 -15 27 -18 110 -21 88 -2 102 0 121 17 21 20 21 20 39 0 21
-23 80 -25 108 -4 16 12 21 12 40 0 29 -21 154 -20 184 1 40 28 28 44 -34 44
l-56 0 7 33 c4 17 13 50 21 72 26 75 27 75 -89 71 -56 -1 -112 -8 -124 -14
-38 -21 -72 -71 -79 -117 l-6 -45 -65 0 -65 0 26 31 c51 60 26 139 -44 139
-44 0 -72 12 -66 27 23 59 21 63 -32 63 -58 0 -48 15 -98 -162 l-27 -98 -60 0
c-52 0 -59 2 -54 18 3 9 23 83 46 163 22 80 43 153 47 163 6 15 1 17 -46 14
-47 -3 -54 -6 -61 -28 -4 -14 -26 -94 -50 -177 l-42 -153 -59 0 c-32 0 -58 4
-58 9 0 5 9 38 20 73 30 96 29 100 -27 96 l-48 -3 -22 -65 c-12 -36 -22 -75
-22 -87 -1 -21 -6 -23 -65 -23 l-64 0 20 75 c23 86 20 105 -20 105 -28 0 -89
-38 -105 -65 -4 -8 -17 -20 -29 -26 -18 -10 -20 -9 -16 7 29 101 68 246 68
254 0 6 -22 10 -49 10 l-49 0 -31 -117 c-42 -157 -49 -172 -50 -104 -2 146
-48 257 -121 293 -44 23 -130 22 -190 0z m1699 -344 c-6 -18 -14 -44 -18 -58
-9 -29 -45 -39 -55 -15 -3 9 -1 36 5 61 11 41 14 44 44 44 33 0 33 0 24 -32z"/>
<path d="M2895 3715 c-49 -48 -17 -137 50 -137 69 0 103 99 49 141 -35 28 -69
26 -99 -4z"/>
<path d="M878 3200 c-116 -35 -516 -276 -479 -288 7 -2 59 28 117 67 58 39
165 101 239 137 166 83 198 88 341 49 103 -28 192 -31 217 -6 9 9 -1 10 -44 5
-45 -5 -72 -1 -139 20 -86 27 -194 34 -252 16z"/>
<path d="M1924 3080 c-49 -20 -90 -108 -78 -168 9 -44 47 -76 90 -76 52 0 79
54 50 99 -21 31 -58 33 -86 3 l-20 -22 0 28 c0 15 10 37 25 51 21 22 33 25 90
25 36 0 65 -3 65 -7 0 -3 -14 -64 -31 -136 l-32 -129 -58 7 c-51 6 -59 5 -68
-13 -20 -38 -14 -42 73 -42 80 0 86 2 106 27 11 14 25 46 31 70 10 38 15 43
40 43 18 0 32 7 39 19 9 17 6 20 -18 23 -25 3 -27 6 -25 43 3 70 18 95 56 95
28 0 36 5 50 35 l17 35 -148 -1 c-81 0 -157 -4 -168 -9z"/>
<path d="M2753 2988 c-6 -7 -18 -28 -27 -45 -29 -58 -50 -62 -286 -63 -227 0
-229 -1 -256 -51 -22 -44 -17 -77 16 -111 28 -27 36 -30 73 -25 59 8 90 45 85
104 -3 43 -3 43 29 43 32 0 33 0 27 -42 -9 -77 35 -118 112 -103 46 8 77 55
70 108 l-4 37 45 0 c37 0 44 -3 39 -17 -19 -67 -26 -105 -21 -113 9 -14 148
-13 163 2 22 22 13 28 -38 28 -55 0 -56 2 -38 61 7 25 17 39 28 39 17 0 40 18
40 32 0 4 -10 8 -21 8 -21 0 -22 13 -6 104 3 14 -19 17 -30 4z m-458 -180
c-12 -55 -25 -80 -38 -76 -33 11 -12 108 24 108 18 0 20 -4 14 -32z m240 0
c-11 -50 -23 -78 -34 -78 -18 0 -23 21 -16 66 5 39 9 44 31 44 24 0 25 -3 19
-32z"/>
<path d="M3856 2934 c-19 -18 -21 -57 -5 -86 8 -15 8 -32 -1 -64 -12 -42 -14
-44 -51 -44 -22 0 -39 3 -39 6 0 3 7 33 16 66 8 33 13 62 11 65 -3 2 -35 4
-72 4 -97 0 -135 -32 -135 -112 l0 -29 -85 0 c-95 0 -102 5 -88 61 7 25 16 35
32 37 25 4 24 5 4 -45 -4 -9 6 -13 31 -13 30 0 38 5 47 26 7 20 6 32 -6 50
-13 21 -23 24 -76 24 -52 0 -63 -4 -84 -26 -13 -14 -27 -38 -30 -54 -7 -32 15
-84 40 -94 28 -10 190 -7 202 5 8 8 18 6 36 -6 23 -15 28 -15 56 0 18 9 31 11
31 5 0 -6 27 -10 64 -10 51 0 68 4 78 18 7 10 21 21 30 25 10 4 23 26 30 52
10 36 16 45 34 45 22 0 22 -1 8 -52 -20 -77 -14 -88 51 -88 63 0 85 7 85 26 0
10 -13 14 -41 14 -34 0 -39 3 -35 18 17 57 28 114 23 119 -4 3 -27 6 -53 6
l-46 0 5 33 c5 32 4 34 -23 34 -16 0 -36 -7 -44 -16z m-149 -108 c-3 -8 -9
-31 -13 -50 -7 -38 -11 -41 -32 -28 -9 6 -11 21 -6 50 6 36 10 42 31 42 18 0
24 -4 20 -14z"/>
<path d="M3148 2882 c-11 -2 -22 -25 -33 -73 -11 -44 -22 -69 -31 -69 -17 0
-17 9 1 83 l13 58 -36 -3 c-35 -3 -36 -4 -55 -75 -11 -39 -17 -78 -14 -86 5
-12 30 -15 131 -16 122 -1 126 0 142 24 13 19 42 119 44 148 0 4 -16 7 -35 7
-37 0 -35 2 -61 -103 -3 -15 -11 -30 -16 -33 -20 -13 -25 13 -12 61 7 28 13
55 14 61 0 13 -27 22 -52 16z"/>
<path d="M9 2456 c-6 -6 13 -191 31 -296 15 -88 74 -328 104 -420 181 -559
548 -1054 1013 -1368 187 -126 414 -230 633 -290 148 -41 251 -58 430 -72 221
-18 467 8 710 77 339 95 673 289 939 547 309 301 534 659 676 1078 80 237 111
384 148 701 2 15 1 30 -3 32 -4 2 -12 -50 -19 -116 -48 -466 -232 -954 -504
-1333 -76 -106 -147 -190 -260 -304 -541 -549 -1278 -780 -1992 -627 -657 141
-1234 597 -1574 1246 -168 319 -264 634 -310 1017 -9 74 -19 131 -22 128z"/>
<path d="M1378 2443 c525 -2 1380 -2 1900 0 521 1 92 2 -953 2 -1045 0 -1471
-1 -947 -2z"/>
</g>
</svg>
